<svg width="23" height="20" viewBox="0 0 23 20" fill="none" xmlns="http://www.w3.org/2000/svg">
<path d="M2.0482 2.38077C2.15387 1.54502 2.94245 0.867506 3.80954 0.867506H8.98896C9.85606 0.867506 10.4733 1.54502 10.3676 2.38077L8.33122 18.4867C8.22554 19.3225 7.43696 20 6.56987 20H1.39045C0.523358 20 -0.0938955 19.3225 0.0117764 18.4867L2.0482 2.38077Z" fill="#1A6D6F"/>
<path fill-rule="evenodd" clip-rule="evenodd" d="M8.98541 0.895642H3.80599C2.95502 0.895642 2.1811 1.56056 2.07739 2.38077L0.0409674 18.4867C-0.0627397 19.3069 0.543037 19.9719 1.39401 19.9719H6.57343C7.4244 19.9719 8.19832 19.3069 8.30202 18.4867L10.3384 2.38077C10.4422 1.56056 9.83638 0.895642 8.98541 0.895642ZM3.80954 0.867506C2.94245 0.867506 2.15387 1.54502 2.0482 2.38077L0.0117764 18.4867C-0.0938955 19.3225 0.523358 20 1.39045 20H6.56987C7.43696 20 8.22554 19.3225 8.33122 18.4867L10.3676 2.38077C10.4733 1.54502 9.85606 0.867506 8.98896 0.867506H3.80954Z" fill="#1A6D6F"/>
<path d="M11.8897 1.91631C12.0914 0.320792 14.1258 -0.558026 15.2796 0.451941L22.4282 6.70938C23.2929 7.46623 23.114 8.88128 22.0579 9.63812L13.3271 15.8956C11.918 16.9055 10.1058 16.0267 10.3075 14.4312L11.8897 1.91631Z" fill="#1A6D6F"/>
<path fill-rule="evenodd" clip-rule="evenodd" d="M15.2637 0.468277C14.1227 -0.530422 12.111 0.338592 11.9116 1.91631L10.3293 14.4312C10.1299 16.0089 11.9218 16.8779 13.3153 15.8792L22.0461 9.62179C23.0903 8.87338 23.2672 7.47412 22.4123 6.72572L15.2637 0.468277ZM11.8678 1.91631C12.0717 0.302993 14.1288 -0.585628 15.2955 0.435605L22.4441 6.69304C23.3184 7.45833 23.1375 8.88917 22.0697 9.65446L13.3389 15.9119C11.914 16.9331 10.0816 16.0445 10.2855 14.4312L11.8678 1.91631Z" fill="#1A6D6F"/>
</svg>
